{
.appVersion = "3414";
.formatVersion = 3;
DisplayStrings = (
"/_corner.round 
ABCDEFGHIJKLM
NOPQRSTUVWXYZ
abcdefghijklm
nopqrstuvwxyz
0123456789
.,-.:;!@#$%^&*()[]{}///backslash |()<>

$3.00

3*8


if (x<4) {
    y[17=47];
}

 


",
":"
);
date = "2025-04-26 21:58:05 +0000";
familyName = "New Font";
fontMaster = (
{
id = m01;
metricValues = (
{
over = 16;
pos = 800;
},
{
over = 16;
pos = 700;
},
{
over = 16;
pos = 500;
},
{
over = -16;
},
{
over = -16;
pos = -200;
},
{
}
);
name = Regular;
}
);
glyphs = (
{
glyphname = A;
lastChange = "2025-05-29 23:19:42 +0000";
layers = (
{
hints = (
{
name = _corner.round;
origin = (0,9);
type = Corner;
},
{
name = _corner.round;
options = 2;
origin = (0,8);
scale = (-1,1);
type = Corner;
}
);
layerId = m01;
shapes = (
{
closed = 1;
nodes = (
(50,0,l),
(150,0,l),
(150,669,l),
(111,640,l),
(420,640,l),
(386,669,l),
(386,0,l),
(486,0,l),
(486,700,l),
(50,700,l)
);
},
{
closed = 1;
nodes = (
(111,383,l),
(420,383,l),
(420,443,l),
(111,443,l)
);
}
);
width = 536;
}
);
unicode = 65;
},
{
glyphname = B;
lastChange = "2025-05-29 23:18:35 +0000";
layers = (
{
hints = (
{
name = _corner.round;
origin = (0,10);
type = Corner;
},
{
name = _corner.round;
options = 2;
origin = (0,11);
scale = (-1,1);
type = Corner;
},
{
name = _corner.round;
origin = (2,1);
type = Corner;
},
{
name = _corner.round;
options = 2;
origin = (0,10);
scale = (-1,1);
type = Corner;
},
{
name = _corner.round;
origin = (0,10);
type = Corner;
},
{
name = _corner.round;
origin = (0,10);
type = Corner;
},
{
name = _corner.round;
origin = (2,1);
type = Corner;
},
{
name = _corner.round;
options = 2;
origin = (2,2);
scale = (-1,1);
type = Corner;
}
);
layerId = m01;
shapes = (
{
closed = 1;
nodes = (
(50,0,l),
(426,0,l),
(426,60,l),
(111,60,l),
(150,28,l),
(150,669,l),
(111,640,l),
(420,640,l),
(386,669,l),
(386,413,l),
(486,413,l),
(486,700,l),
(50,700,l)
);
},
{
closed = 1;
nodes = (
(111,383,l),
(420,383,l),
(420,443,l),
(111,443,l)
);
},
{
closed = 1;
nodes = (
(386,0,l),
(486,0,l),
(486,413,l),
(386,413,l)
);
}
);
width = 536;
}
);
unicode = 66;
},
{
glyphname = C;
lastChange = "2025-05-29 23:21:29 +0000";
layers = (
{
hints = (
{
name = _corner.round;
origin = (0,0);
type = Corner;
},
{
name = _corner.round;
origin = (0,15);
type = Corner;
},
{
name = _corner.round;
origin = (0,13);
scale = (0.8,0.8);
type = Corner;
},
{
name = _corner.round;
origin = (0,14);
scale = (0.8,0.8);
type = Corner;
},
{
name = _corner.round;
origin = (0,1);
scale = (0.8,0.8);
type = Corner;
},
{
name = _corner.round;
origin = (0,2);
scale = (0.8,0.8);
type = Corner;
}
);
layerId = m01;
shapes = (
{
closed = 1;
nodes = (
(50,0,l),
(486,0,l),
(486,100,l),
(386,100,l),
(386,28,l),
(425,60,l),
(112,60,l),
(150,28,l),
(150,671,l),
(112,640,l),
(425,640,l),
(386,671,l),
(386,600,l),
(486,600,l),
(486,700,l),
(50,700,l)
);
}
);
width = 536;
}
);
unicode = 67;
},
{
glyphname = D;
lastChange = "2025-05-29 23:19:55 +0000";
layers = (
{
hints = (
{
name = _corner.round;
origin = (0,1);
type = Corner;
},
{
name = _corner.round;
origin = (0,2);
type = Corner;
}
);
layerId = m01;
shapes = (
{
closed = 1;
nodes = (
(50,0,l),
(486,0,l),
(486,700,l),
(50,700,l)
);
},
{
closed = 1;
nodes = (
(150,669,l),
(109,640,l),
(426,640,l),
(386,669,l),
(386,27,l),
(426,60,l),
(109,60,l),
(150,27,l)
);
}
);
width = 536;
}
);
unicode = 68;
},
{
glyphname = E;
lastChange = "2025-05-29 23:19:59 +0000";
layers = (
{
layerId = m01;
shapes = (
{
closed = 1;
nodes = (
(50,0,l),
(486,0,l),
(486,60,l),
(113,60,l),
(150,28,l),
(150,670,l),
(113,640,l),
(486,640,l),
(486,700,l),
(50,700,l)
);
},
{
closed = 1;
nodes = (
(111,383,l),
(420,383,l),
(420,443,l),
(111,443,l)
);
}
);
width = 536;
}
);
unicode = 69;
},
{
glyphname = F;
lastChange = "2025-05-29 23:20:04 +0000";
layers = (
{
layerId = m01;
shapes = (
{
closed = 1;
nodes = (
(50,0,l),
(150,0,l),
(150,675,l),
(111,640,l),
(486,640,l),
(486,700,l),
(50,700,l)
);
},
{
closed = 1;
nodes = (
(111,383,l),
(420,383,l),
(420,443,l),
(111,443,l)
);
}
);
width = 536;
}
);
unicode = 70;
},
{
glyphname = G;
lastChange = "2025-05-29 23:22:16 +0000";
layers = (
{
hints = (
{
name = _corner.round;
origin = (0,0);
type = Corner;
},
{
name = _corner.round;
origin = (0,18);
type = Corner;
},
{
name = _corner.round;
origin = (0,1);
type = Corner;
},
{
name = _corner.round;
origin = (0,2);
type = Corner;
},
{
name = _corner.round;
origin = (0,16);
scale = (0.8,0.8);
type = Corner;
},
{
name = _corner.round;
origin = (0,17);
scale = (0.8,0.8);
type = Corner;
}
);
layerId = m01;
shapes = (
{
closed = 1;
nodes = (
(50,0,l),
(486,0,l),
(486,443,l),
(251,443,l),
(251,383,l),
(411,383,l),
(386,428,l),
(386,26,l),
(411,60,l),
(125,60,l),
(150,26,l),
(150,670,l),
(125,640,l),
(411,640,l),
(386,670,l),
(386,600,l),
(486,600,l),
(486,700,l),
(50,700,l)
);
}
);
width = 536;
}
);
unicode = 71;
},
{
glyphname = H;
lastChange = "2025-05-29 23:20:22 +0000";
layers = (
{
layerId = m01;
shapes = (
{
closed = 1;
nodes = (
(50,0,l),
(150,0,l),
(150,700,l),
(50,700,l)
);
},
{
closed = 1;
nodes = (
(386,0,l),
(486,0,l),
(486,700,l),
(386,700,l)
);
},
{
closed = 1;
nodes = (
(111,383,l),
(420,383,l),
(420,443,l),
(111,443,l)
);
}
);
width = 536;
}
);
unicode = 72;
},
{
glyphname = I;
lastChange = "2025-05-29 23:22:34 +0000";
layers = (
{
layerId = m01;
shapes = (
{
closed = 1;
nodes = (
(50,700,l),
(50,640,l),
(253,640,l),
(218,671,l),
(218,27,l),
(253,60,l),
(50,60,l),
(50,0,l),
(486,0,l),
(486,60,l),
(283,60,l),
(318,27,l),
(318,671,l),
(283,640,l),
(486,640,l),
(486,700,l)
);
}
);
width = 536;
}
);
unicode = 73;
},
{
glyphname = J;
lastChange = "2025-05-29 23:22:47 +0000";
layers = (
{
hints = (
{
name = _corner.round;
origin = (0,5);
type = Corner;
},
{
name = _corner.round;
origin = (0,6);
type = Corner;
},
{
name = _corner.round;
origin = (0,7);
type = Corner;
}
);
layerId = m01;
shapes = (
{
closed = 1;
nodes = (
(386,27,l),
(411,60,l),
(125,60,l),
(150,27,l),
(150,270,l),
(50,270,l),
(50,0,l),
(486,0,l),
(486,700,l),
(386,700,l)
);
}
);
width = 536;
}
);
unicode = 74;
},
{
glyphname = K;
lastChange = "2025-05-29 23:23:03 +0000";
layers = (
{
layerId = m01;
shapes = (
{
closed = 1;
nodes = (
(50,0,l),
(150,0,l),
(150,700,l),
(50,700,l)
);
},
{
closed = 1;
nodes = (
(184,332,l),
(432,0,l),
(523,0,l),
(232,389,l)
);
},
{
closed = 1;
nodes = (
(486,700,l),
(396,700,l),
(106,292,l),
(120,186,l)
);
}
);
width = 536;
}
);
unicode = 75;
},
{
glyphname = L;
lastChange = "2025-05-29 23:23:34 +0000";
layers = (
{
layerId = m01;
shapes = (
{
closed = 1;
nodes = (
(50,700,l),
(50,0,l),
(486,0,l),
(486,60,l),
(113,60,l),
(150,31,l),
(150,700,l)
);
}
);
width = 536;
}
);
unicode = 76;
},
{
glyphname = M;
lastChange = "2025-05-29 23:24:10 +0000";
layers = (
{
layerId = m01;
shapes = (
{
closed = 1;
nodes = (
(50,0,l),
(150,0,l),
(150,602,l),
(139,602,l),
(238,282,l),
(299,282,l),
(401,616,l),
(386,618,l),
(386,0,l),
(486,0,l),
(486,700,l),
(366,700,l),
(268,381,l),
(170,700,l),
(50,700,l)
);
}
);
width = 536;
}
);
unicode = 77;
},
{
glyphname = N;
lastChange = "2025-05-29 23:24:56 +0000";
layers = (
{
layerId = m01;
shapes = (
{
closed = 1;
nodes = (
(50,0,l),
(150,0,l),
(150,628,l),
(132,629,l),
(366,0,l),
(486,0,l),
(486,700,l),
(386,700,l),
(386,80,l),
(409,59,l),
(170,700,l),
(50,700,l)
);
}
);
width = 536;
}
);
unicode = 78;
},
{
glyphname = O;
lastChange = "2025-05-29 23:25:06 +0000";
layers = (
{
hints = (
{
name = _corner.round;
origin = (0,1);
type = Corner;
},
{
name = _corner.round;
origin = (0,2);
type = Corner;
},
{
name = _corner.round;
origin = (0,0);
type = Corner;
},
{
name = _corner.round;
origin = (0,3);
type = Corner;
}
);
layerId = m01;
shapes = (
{
closed = 1;
nodes = (
(50,0,l),
(486,0,l),
(486,700,l),
(50,700,l)
);
},
{
closed = 1;
nodes = (
(150,672,l),
(125,640,l),
(411,640,l),
(386,672,l),
(386,27,l),
(411,60,l),
(125,60,l),
(150,27,l)
);
}
);
width = 536;
}
);
unicode = 79;
},
{
glyphname = P;
lastChange = "2025-05-29 23:25:17 +0000";
layers = (
{
hints = (
{
name = _corner.round;
origin = (0,3);
type = Corner;
},
{
name = _corner.round;
options = 2;
origin = (0,4);
scale = (-1,1);
type = Corner;
}
);
layerId = m01;
shapes = (
{
closed = 1;
nodes = (
(50,0,l),
(150,0,l),
(150,383,l),
(486,383,l),
(486,700,l),
(50,700,l)
);
},
{
closed = 1;
nodes = (
(150,675,l),
(125,640,l),
(411,640,l),
(386,675,l),
(386,410,l),
(411,443,l),
(125,443,l),
(150,410,l)
);
}
);
width = 536;
}
);
unicode = 80;
},
{
glyphname = Q;
lastChange = "2025-05-29 23:25:27 +0000";
layers = (
{
hints = (
{
name = _corner.round;
origin = (0,0);
type = Corner;
},
{
name = _corner.round;
origin = (0,3);
type = Corner;
},
{
name = _corner.round;
origin = (0,1);
type = Corner;
},
{
name = _corner.round;
origin = (0,2);
type = Corner;
}
);
layerId = m01;
shapes = (
{
closed = 1;
nodes = (
(50,0,l),
(486,0,l),
(486,700,l),
(50,700,l)
);
},
{
closed = 1;
nodes = (
(150,665,l),
(125,640,l),
(411,640,l),
(386,665,l),
(386,35,l),
(411,60,l),
(125,60,l),
(150,35,l)
);
},
{
closed = 1;
nodes = (
(306,25,l),
(306,-112,l),
(366,-112,l),
(366,25,l)
);
}
);
width = 536;
}
);
unicode = 81;
},
{
glyphname = R;
lastChange = "2025-05-29 23:25:38 +0000";
layers = (
{
hints = (
{
name = _corner.round;
origin = (0,7);
type = Corner;
},
{
name = _corner.round;
options = 2;
origin = (0,8);
scale = (-1,1);
type = Corner;
},
{
name = _corner.round;
origin = (0,7);
type = Corner;
},
{
name = _corner.round;
origin = (2,2);
type = Corner;
}
);
layerId = m01;
shapes = (
{
closed = 1;
nodes = (
(50,0,l),
(150,0,l),
(150,669,l),
(125,640,l),
(411,640,l),
(386,669,l),
(386,413,l),
(486,413,l),
(486,700,l),
(50,700,l)
);
},
{
closed = 1;
nodes = (
(111,383,l),
(420,383,l),
(420,443,l),
(111,443,l)
);
},
{
closed = 1;
nodes = (
(386,0,l),
(486,0,l),
(486,413,l),
(386,413,l)
);
}
);
width = 536;
}
);
unicode = 82;
},
{
glyphname = S;
lastChange = "2025-05-29 23:27:46 +0000";
layers = (
{
hints = (
{
name = _corner.round;
origin = (0,1);
type = Corner;
},
{
name = _corner.round;
options = 2;
origin = (0,0);
scale = (-1,1);
type = Corner;
},
{
name = _corner.round;
origin = (0,11);
type = Corner;
},
{
name = _corner.round;
origin = (0,12);
type = Corner;
},
{
name = _corner.round;
origin = (0,20);
scale = (0.8,0.8);
type = Corner;
},
{
name = _corner.round;
origin = (0,21);
scale = (0.8,0.8);
type = Corner;
},
{
name = _corner.round;
origin = (0,10);
scale = (0.8,0.8);
type = Corner;
},
{
name = _corner.round;
origin = (0,9);
scale = (0.8,0.8);
type = Corner;
}
);
layerId = m01;
shapes = (
{
closed = 1;
nodes = (
(60,700,l),
(60,383,l),
(411,383,l),
(386,418,l),
(386,25,l),
(411,60,l),
(125,60,l),
(170,25,l),
(170,100,l),
(50,100,l),
(50,0,l),
(486,0,l),
(486,443,l),
(135,443,l),
(160,408,l),
(160,675,l),
(135,640,l),
(411,640,l),
(386,675,l),
(386,600,l),
(486,600,l),
(486,700,l)
);
}
);
width = 536;
}
);
unicode = 83;
},
{
glyphname = T;
lastChange = "2025-05-29 23:27:55 +0000";
layers = (
{
layerId = m01;
shapes = (
{
closed = 1;
nodes = (
(20,700,l),
(20,640,l),
(253,640,l),
(218,675,l),
(218,0,l),
(318,0,l),
(318,675,l),
(283,640,l),
(516,640,l),
(516,700,l)
);
}
);
width = 536;
}
);
unicode = 84;
},
{
glyphname = U;
lastChange = "2025-05-29 23:28:05 +0000";
layers = (
{
hints = (
{
name = _corner.round;
origin = (0,0);
type = Corner;
},
{
name = _corner.round;
origin = (0,1);
type = Corner;
}
);
layerId = m01;
shapes = (
{
closed = 1;
nodes = (
(50,0,l),
(486,0,l),
(486,700,l),
(386,700,l),
(386,26,l),
(411,60,l),
(125,60,l),
(150,26,l),
(150,700,l),
(50,700,l)
);
}
);
width = 536;
}
);
unicode = 85;
},
{
glyphname = V;
lastChange = "2025-05-29 23:28:33 +0000";
layers = (
{
layerId = m01;
shapes = (
{
closed = 1;
nodes = (
(211,0,l),
(331,0,l),
(486,700,l),
(426,700,l),
(288,81,l),
(294,83,l),
(153,700,l),
(50,700,l)
);
}
);
width = 536;
}
);
unicode = 86;
},
{
glyphname = W;
lastChange = "2025-05-29 23:29:12 +0000";
layers = (
{
layerId = m01;
shapes = (
{
closed = 1;
nodes = (
(170,0,l),
(281,361,l),
(255,361,l),
(366,0,l),
(486,0,l),
(486,700,l),
(386,700,l),
(386,81,l),
(403,78,l),
(299,418,l),
(237,418,l),
(135,84,l),
(150,74,l),
(150,700,l),
(50,700,l),
(50,0,l)
);
}
);
width = 536;
}
);
unicode = 87;
},
{
glyphname = X;
lastChange = "2025-05-29 23:29:54 +0000";
layers = (
{
layerId = m01;
shapes = (
{
closed = 1;
nodes = (
(285,319,l),
(514,700,l),
(447,700,l),
(252,376,l)
);
},
{
closed = 1;
nodes = (
(20,700,l),
(398,0,l),
(510,0,l),
(132,700,l)
);
},
{
closed = 1;
nodes = (
(259,376,l),
(35,0,l),
(102,0,l),
(292,319,l)
);
}
);
width = 536;
}
);
unicode = 88;
},
{
glyphname = Y;
lastChange = "2025-05-29 23:30:07 +0000";
layers = (
{
hints = (
{
name = _corner.round;
origin = (0,7);
type = Corner;
},
{
name = _corner.round;
options = 2;
origin = (0,7);
scale = (-1,1);
type = Corner;
},
{
name = _corner.round;
options = 2;
origin = (0,6);
scale = (-1,1);
type = Corner;
}
);
layerId = m01;
shapes = (
{
closed = 1;
nodes = (
(386,413,l),
(411,443,l),
(125,443,l),
(150,413,l),
(150,700,l),
(50,700,l),
(50,383,l),
(486,383,l),
(486,700,l),
(386,700,l)
);
},
{
closed = 1;
nodes = (
(211,0,l),
(331,0,l),
(331,413,l),
(211,413,l)
);
}
);
width = 536;
}
);
unicode = 89;
},
{
glyphname = Z;
lastChange = "2025-05-29 23:30:34 +0000";
layers = (
{
layerId = m01;
shapes = (
{
closed = 1;
nodes = (
(50,640,l),
(411,640,l),
(388,680,l),
(50,60,l),
(50,0,l),
(486,0,l),
(486,60,l),
(125,60,l),
(142,20,l),
(480,640,l),
(480,700,l),
(50,700,l)
);
}
);
width = 536;
}
);
unicode = 90;
},
{
glyphname = a;
lastChange = "2025-05-29 23:30:57 +0000";
layers = (
{
hints = (
{
name = _corner.round;
origin = (0,3);
type = Corner;
},
{
name = _corner.round;
origin = (0,0);
type = Corner;
},
{
name = _corner.round;
origin = (0,1);
type = Corner;
}
);
layerId = m01;
shapes = (
{
closed = 1;
nodes = (
(50,349,l),
(50,0,l),
(486,0,l),
(486,500,l),
(50,500,l),
(50,440,l),
(411,440,l),
(386,475,l),
(386,324,l),
(411,349,l)
);
},
{
closed = 1;
nodes = (
(150,314,l),
(125,289,l),
(411,289,l),
(386,314,l),
(386,33,l),
(411,60,l),
(125,60,l),
(150,33,l)
);
}
);
width = 536;
}
);
unicode = 97;
},
{
glyphname = b;
lastChange = "2025-05-29 23:31:06 +0000";
layers = (
{
hints = (
{
name = _corner.round;
origin = (0,3);
type = Corner;
},
{
name = _corner.round;
origin = (0,2);
type = Corner;
}
);
layerId = m01;
shapes = (
{
closed = 1;
nodes = (
(50,700,l),
(50,0,l),
(486,0,l),
(486,500,l),
(125,500,l),
(150,474,l),
(150,700,l)
);
},
{
closed = 1;
nodes = (
(150,464,l),
(125,440,l),
(411,440,l),
(386,464,l),
(386,26,l),
(411,60,l),
(125,60,l),
(150,26,l)
);
}
);
width = 536;
}
);
unicode = 98;
},
{
glyphname = c;
lastChange = "2025-05-29 23:31:10 +0000";
layers = (
{
hints = (
{
name = _corner.round;
origin = (0,1);
type = Corner;
},
{
name = _corner.round;
origin = (0,0);
type = Corner;
}
);
layerId = m01;
shapes = (
{
closed = 1;
nodes = (
(50,500,l),
(50,0,l),
(486,0,l),
(486,60,l),
(125,60,l),
(150,25,l),
(150,475,l),
(125,440,l),
(486,440,l),
(486,500,l)
);
}
);
width = 536;
}
);
unicode = 99;
},
{
glyphname = d;
lastChange = "2025-05-29 23:31:21 +0000";
layers = (
{
hints = (
{
name = _corner.round;
origin = (0,3);
type = Corner;
},
{
name = _corner.round;
origin = (0,2);
type = Corner;
}
);
layerId = m01;
shapes = (
{
closed = 1;
nodes = (
(386,478,l),
(411,500,l),
(50,500,l),
(50,0,l),
(486,0,l),
(486,700,l),
(386,700,l)
);
},
{
closed = 1;
nodes = (
(150,465,l),
(125,440,l),
(411,440,l),
(386,465,l),
(386,35,l),
(411,60,l),
(125,60,l),
(150,35,l)
);
}
);
width = 536;
}
);
unicode = 100;
},
{
glyphname = e;
lastChange = "2025-05-29 23:32:10 +0000";
layers = (
{
hints = (
{
name = _corner.round;
origin = (0,3);
type = Corner;
},
{
name = _corner.round;
origin = (0,4);
type = Corner;
},
{
name = _corner.round;
origin = (0,2);
type = Corner;
},
{
name = _corner.round;
origin = (0,1);
type = Corner;
}
);
layerId = m01;
shapes = (
{
closed = 1;
nodes = (
(125,289,l),
(486,289,l),
(486,500,l),
(50,500,l),
(50,0,l),
(486,0,l),
(486,60,l),
(125,60,l),
(150,27,l),
(150,475,l),
(125,440,l),
(411,440,l),
(386,475,l),
(386,349,l),
(125,349,l)
);
}
);
width = 536;
}
);
unicode = 101;
},
{
glyphname = f;
lastChange = "2025-05-29 23:32:25 +0000";
layers = (
{
hints = (
{
name = _corner.round;
origin = (0,0);
type = Corner;
}
);
layerId = m01;
shapes = (
{
closed = 1;
nodes = (
(196,700,l),
(196,0,l),
(296,0,l),
(296,671,l),
(261,640,l),
(486,640,l),
(486,700,l)
);
},
{
closed = 1;
nodes = (
(50,440,l),
(486,440,l),
(486,500,l),
(50,500,l)
);
}
);
width = 536;
}
);
unicode = 102;
},
{
glyphname = g;
lastChange = "2025-05-29 23:32:36 +0000";
layers = (
{
hints = (
{
name = _corner.round;
origin = (0,0);
type = Corner;
},
{
name = _corner.round;
origin = (0,1);
type = Corner;
},
{
name = _corner.round;
origin = (0,8);
type = Corner;
}
);
layerId = m01;
shapes = (
{
closed = 1;
nodes = (
(50,500,l),
(50,0,l),
(411,0,l),
(376,20,l),
(376,-169,l),
(411,-140,l),
(50,-140,l),
(50,-200,l),
(486,-200,l),
(486,500,l)
);
},
{
closed = 1;
nodes = (
(160,465,l),
(125,440,l),
(411,440,l),
(376,465,l),
(376,35,l),
(411,60,l),
(125,60,l),
(160,35,l)
);
}
);
width = 536;
}
);
unicode = 103;
},
{
glyphname = h;
lastChange = "2025-05-29 23:32:49 +0000";
layers = (
{
hints = (
{
name = _corner.round;
origin = (1,6);
type = Corner;
}
);
layerId = m01;
shapes = (
{
closed = 1;
nodes = (
(50,700,l),
(50,0,l),
(150,0,l),
(150,700,l)
);
},
{
closed = 1;
nodes = (
(80,500,l),
(80,440,l),
(411,440,l),
(386,485,l),
(386,0,l),
(486,0,l),
(486,500,l)
);
}
);
width = 536;
}
);
unicode = 104;
},
{
glyphname = i;
lastChange = "2025-05-29 23:32:55 +0000";
layers = (
{
layerId = m01;
shapes = (
{
closed = 1;
nodes = (
(83,500,l),
(83,440,l),
(253,440,l),
(218,475,l),
(218,25,l),
(253,60,l),
(50,60,l),
(50,0,l),
(486,0,l),
(486,60,l),
(283,60,l),
(318,25,l),
(318,500,l)
);
},
{
closed = 1;
nodes = (
(301,580,o),
(328,606,o),
(328,640,cs),
(328,673,o),
(301,700,o),
(268,700,cs),
(234,700,o),
(208,673,o),
(208,640,cs),
(208,606,o),
(234,580,o),
(268,580,cs)
);
}
);
width = 536;
}
);
unicode = 105;
},
{
glyphname = j;
lastChange = "2025-05-29 23:33:07 +0000";
layers = (
{
guides = (
{
angle = 180;
pos = (110,60);
}
);
hints = (
{
name = _corner.round;
origin = (1,2);
type = Corner;
}
);
layerId = m01;
shapes = (
{
closed = 1;
nodes = (
(459,580,o),
(486,606,o),
(486,640,cs),
(486,673,o),
(459,700,o),
(426,700,cs),
(392,700,o),
(366,673,o),
(366,640,cs),
(366,606,o),
(392,580,o),
(426,580,cs)
);
},
{
closed = 1;
nodes = (
(50,-140,l),
(50,-200,l),
(476,-200,l),
(476,500,l),
(241,500,l),
(241,440,l),
(411,440,l),
(376,485,l),
(376,-140,l)
);
}
);
width = 536;
}
);
unicode = 106;
},
{
glyphname = k;
lastChange = "2025-05-29 23:33:27 +0000";
layers = (
{
layerId = m01;
shapes = (
{
closed = 1;
nodes = (
(70,700,l),
(70,0,l),
(170,0,l),
(170,700,l)
);
},
{
closed = 1;
nodes = (
(129,175,l),
(466,500,l),
(365,500,l),
(113,259,l)
);
},
{
closed = 1;
nodes = (
(336,0,l),
(460,0,l),
(210,341,l),
(138,271,l)
);
}
);
width = 536;
}
);
unicode = 107;
},
{
glyphname = l;
lastChange = "2025-05-29 23:33:35 +0000";
layers = (
{
layerId = m01;
shapes = (
{
closed = 1;
nodes = (
(50,60,l),
(50,0,l),
(486,0,l),
(486,60,l)
);
},
{
closed = 1;
nodes = (
(318,28,l),
(318,700,l),
(83,700,l),
(83,640,l),
(253,640,l),
(218,675,l),
(218,28,l)
);
}
);
width = 536;
}
);
unicode = 108;
},
{
glyphname = m;
lastChange = "2025-05-29 23:33:54 +0000";
layers = (
{
hints = (
{
name = _corner.round;
origin = (1,6);
type = Corner;
},
{
name = _corner.round;
origin = (0,6);
type = Corner;
},
{
name = _corner.round;
origin = (0,6);
type = Corner;
},
{
name = _corner.round;
origin = (0,6);
type = Corner;
},
{
name = _corner.round;
options = 2;
origin = (0,6);
scale = (-1,1);
type = Corner;
},
{
name = _corner.round;
origin = (0,6);
type = Corner;
},
{
name = _corner.round;
type = Corner;
},
{
name = _corner.round;
type = Corner;
},
{
name = _corner.round;
origin = (0,6);
type = Corner;
},
{
name = _corner.round;
origin = (1,0);
type = Corner;
}
);
layerId = m01;
shapes = (
{
closed = 1;
nodes = (
(50,500,l),
(50,0,l),
(150,0,l),
(150,465,l),
(125,440,l),
(277,440,l),
(277,500,l)
);
},
{
closed = 1;
nodes = (
(277,500,l),
(277,440,l),
(451,440,l),
(406,465,l),
(406,0,l),
(486,0,l),
(486,500,l)
);
},
{
closed = 1;
nodes = (
(192,440,l),
(237,465,l),
(239,58,l),
(319,58,l),
(317,465,l),
(362,440,l)
);
}
);
width = 536;
}
);
unicode = 109;
},
{
glyphname = n;
lastChange = "2025-05-29 23:34:08 +0000";
layers = (
{
hints = (
{
name = _corner.round;
origin = (0,9);
type = Corner;
}
);
layerId = m01;
shapes = (
{
closed = 1;
nodes = (
(50,500,l),
(50,0,l),
(150,0,l),
(150,475,l),
(125,440,l),
(411,440,l),
(386,475,l),
(386,0,l),
(486,0,l),
(486,500,l)
);
}
);
width = 536;
}
);
unicode = 110;
},
{
glyphname = o;
lastChange = "2025-05-29 23:34:14 +0000";
layers = (
{
hints = (
{
name = _corner.round;
origin = (0,3);
type = Corner;
},
{
name = _corner.round;
origin = (0,0);
type = Corner;
},
{
name = _corner.round;
options = 2;
origin = (0,1);
scale = (-1,1);
type = Corner;
},
{
name = _corner.round;
options = 2;
origin = (0,2);
scale = (-1,1);
type = Corner;
}
);
layerId = m01;
shapes = (
{
closed = 1;
nodes = (
(50,500,l),
(50,0,l),
(486,0,l),
(486,500,l)
);
},
{
closed = 1;
nodes = (
(150,465,l),
(125,440,l),
(411,440,l),
(386,465,l),
(386,35,l),
(411,60,l),
(125,60,l),
(150,35,l)
);
}
);
width = 536;
}
);
unicode = 111;
},
{
glyphname = p;
lastChange = "2025-05-29 23:34:18 +0000";
layers = (
{
hints = (
{
name = _corner.round;
origin = (0,2);
type = Corner;
},
{
name = _corner.round;
origin = (0,1);
type = Corner;
}
);
layerId = m01;
shapes = (
{
closed = 1;
nodes = (
(119,0,l),
(486,0,l),
(486,500,l),
(50,500,l),
(50,-200,l),
(150,-200,l),
(150,475,l),
(125,440,l),
(411,440,l),
(386,475,l),
(386,25,l),
(411,60,l),
(119,60,l)
);
}
);
width = 536;
}
);
unicode = 112;
},
{
glyphname = q;
lastChange = "2025-05-29 23:34:26 +0000";
layers = (
{
hints = (
{
name = _corner.round;
origin = (0,4);
type = Corner;
},
{
name = _corner.round;
origin = (0,3);
type = Corner;
}
);
layerId = m01;
shapes = (
{
closed = 1;
nodes = (
(386,-200,l),
(486,-200,l),
(486,500,l),
(50,500,l),
(50,0,l),
(428,1,l),
(428,61,l),
(125,60,l),
(150,15,l),
(150,475,l),
(125,440,l),
(411,440,l),
(386,475,l)
);
}
);
width = 536;
}
);
unicode = 113;
},
{
glyphname = r;
lastChange = "2025-05-29 23:34:33 +0000";
layers = (
{
hints = (
{
name = _corner.round;
origin = (0,9);
type = Corner;
}
);
layerId = m01;
shapes = (
{
closed = 1;
nodes = (
(50,500,l),
(50,0,l),
(150,0,l),
(150,471,l),
(125,440,l),
(411,440,l),
(386,471,l),
(386,354,l),
(486,354,l),
(486,500,l)
);
}
);
width = 536;
}
);
unicode = 114;
},
{
glyphname = s;
lastChange = "2025-05-29 23:34:40 +0000";
layers = (
{
hints = (
{
name = _corner.round;
origin = (0,8);
type = Corner;
},
{
name = _corner.round;
options = 2;
origin = (0,9);
scale = (-1,1);
type = Corner;
},
{
name = _corner.round;
origin = (0,1);
type = Corner;
},
{
name = _corner.round;
options = 2;
origin = (0,0);
scale = (-1,1);
type = Corner;
}
);
layerId = m01;
shapes = (
{
closed = 1;
nodes = (
(50,500,l),
(50,289,l),
(411,289,l),
(386,324,l),
(386,25,l),
(411,60,l),
(51,60,l),
(51,0,l),
(486,0,l),
(486,349,l),
(125,349,l),
(150,314,l),
(150,475,l),
(125,440,l),
(486,440,l),
(486,500,l)
);
}
);
width = 536;
}
);
unicode = 115;
},
{
glyphname = t;
lastChange = "2025-05-29 23:34:54 +0000";
layers = (
{
hints = (
{
name = _corner.round;
origin = (0,1);
type = Corner;
}
);
layerId = m01;
shapes = (
{
closed = 1;
nodes = (
(218,700,l),
(218,0,l),
(486,0,l),
(486,60,l),
(266,60,l),
(318,25,l),
(318,700,l)
);
},
{
closed = 1;
nodes = (
(50,440,l),
(486,440,l),
(486,500,l),
(50,500,l)
);
}
);
width = 536;
}
);
unicode = 116;
},
{
glyphname = u;
lastChange = "2025-05-29 23:35:02 +0000";
layers = (
{
hints = (
{
name = _corner.round;
origin = (0,9);
type = Corner;
}
);
layerId = m01;
shapes = (
{
closed = 1;
nodes = (
(486,0,l),
(486,500,l),
(386,500,l),
(386,25,l),
(411,60,l),
(125,60,l),
(150,25,l),
(150,500,l),
(50,500,l),
(50,0,l)
);
}
);
width = 536;
}
);
unicode = 117;
},
{
glyphname = v;
lastChange = "2025-05-29 23:35:12 +0000";
layers = (
{
layerId = m01;
shapes = (
{
closed = 1;
nodes = (
(334,0,l),
(486,500,l),
(423,500,l),
(287,52,l),
(302,52,l),
(155,500,l),
(50,500,l),
(214,0,l)
);
}
);
width = 536;
}
);
unicode = 118;
},
{
glyphname = w;
lastChange = "2025-05-29 23:35:24 +0000";
layers = (
{
hints = (
{
name = _corner.round;
origin = (1,0);
type = Corner;
},
{
name = _corner.round;
origin = (0,0);
type = Corner;
},
{
name = _corner.round;
origin = (0,0);
type = Corner;
},
{
name = _corner.round;
origin = (0,0);
type = Corner;
},
{
name = _corner.round;
origin = (1,6);
type = Corner;
}
);
layerId = m01;
shapes = (
{
closed = 1;
nodes = (
(278,0,l),
(278,60,l),
(125,60,l),
(150,35,l),
(150,500,l),
(50,500,l),
(50,0,l)
);
},
{
closed = 1;
nodes = (
(486,0,l),
(486,500,l),
(406,502,l),
(406,35,l),
(451,60,l),
(278,60,l),
(278,0,l)
);
},
{
closed = 1;
nodes = (
(320,440,l),
(240,440,l),
(238,35,l),
(193,60,l),
(363,60,l),
(318,35,l)
);
}
);
width = 536;
}
);
unicode = 119;
},
{
glyphname = x;
lastChange = "2025-05-29 23:35:33 +0000";
layers = (
{
layerId = m01;
shapes = (
{
closed = 1;
nodes = (
(275,232,l),
(460,500,l),
(400,500,l),
(243,272,l)
);
},
{
closed = 1;
nodes = (
(50,500,l),
(366,0,l),
(484,0,l),
(168,500,l)
);
},
{
closed = 1;
nodes = (
(218,244,l),
(50,0,l),
(110,0,l),
(250,204,l)
);
}
);
width = 536;
}
);
unicode = 120;
},
{
glyphname = y;
lastChange = "2025-05-29 23:35:42 +0000";
layers = (
{
hints = (
{
name = _corner.round;
origin = (0,5);
type = Corner;
},
{
name = _corner.round;
origin = (1,4);
type = Corner;
}
);
layerId = m01;
shapes = (
{
closed = 1;
nodes = (
(427,60,l),
(126,60,l),
(151,25,l),
(150,500,l),
(50,500,l),
(51,0,l),
(427,0,l)
);
},
{
closed = 1;
nodes = (
(386,-175,l),
(411,-140,l),
(50,-140,l),
(50,-200,l),
(486,-200,l),
(486,500,l),
(386,500,l)
);
}
);
width = 536;
}
);
unicode = 121;
},
{
glyphname = z;
lastChange = "2025-05-29 23:35:57 +0000";
layers = (
{
layerId = m01;
shapes = (
{
closed = 1;
nodes = (
(50,0,l),
(486,0,l),
(486,60,l),
(125,60,l),
(141,25,l),
(486,440,l),
(486,500,l),
(50,500,l),
(50,440,l),
(411,440,l),
(395,475,l),
(50,60,l)
);
}
);
width = 536;
}
);
unicode = 122;
},
{
glyphname = m.001;
lastChange = "2025-05-28 22:14:11 +0000";
layers = (
{
hints = (
{
name = _corner.round;
origin = (1,6);
type = Corner;
},
{
name = _corner.round;
origin = (0,6);
type = Corner;
},
{
name = _corner.round;
origin = (0,6);
type = Corner;
},
{
name = _corner.round;
origin = (0,6);
type = Corner;
},
{
name = _corner.round;
options = 2;
origin = (0,6);
scale = (-1,1);
type = Corner;
},
{
name = _corner.round;
origin = (0,6);
type = Corner;
},
{
name = _corner.round;
type = Corner;
},
{
name = _corner.round;
type = Corner;
},
{
name = _corner.round;
origin = (0,6);
type = Corner;
},
{
name = _corner.round;
origin = (1,0);
type = Corner;
}
);
layerId = m01;
shapes = (
{
closed = 1;
nodes = (
(50,500,l),
(50,0,l),
(170,0,l),
(170,465,l),
(125,440,l),
(287,440,l),
(287,500,l)
);
},
{
closed = 1;
nodes = (
(287,500,l),
(287,440,l),
(451,440,l),
(406,465,l),
(406,0,l),
(486,0,l),
(486,500,l)
);
},
{
closed = 1;
nodes = (
(202,440,l),
(247,465,l),
(249,0,l),
(329,0,l),
(327,465,l),
(372,440,l)
);
}
);
width = 536;
}
);
},
{
glyphname = zero;
lastChange = "2025-05-29 23:36:12 +0000";
layers = (
{
hints = (
{
name = _corner.round;
origin = (3,1);
type = Corner;
},
{
name = _corner.round;
origin = (3,2);
type = Corner;
},
{
name = _corner.round;
origin = (0,0);
type = Corner;
},
{
name = _corner.round;
origin = (0,3);
type = Corner;
}
);
layerId = m01;
shapes = (
{
closed = 1;
nodes = (
(50,0,l),
(150,0,l),
(150,700,l),
(50,700,l)
);
},
{
closed = 1;
nodes = (
(117,640,l),
(426,640,l),
(426,700,l),
(117,700,l)
);
},
{
closed = 1;
nodes = (
(117,0,l),
(426,0,l),
(426,60,l),
(117,60,l)
);
},
{
closed = 1;
nodes = (
(386,0,l),
(486,0,l),
(486,700,l),
(386,700,l)
);
},
{
closed = 1;
nodes = (
(110,60,l),
(170,60,l),
(426,640,l),
(366,640,l)
);
}
);
width = 536;
}
);
unicode = 48;
},
{
glyphname = one;
lastChange = "2025-05-29 23:37:28 +0000";
layers = (
{
layerId = m01;
shapes = (
{
closed = 1;
nodes = (
(50,60,l),
(50,0,l),
(486,0,l),
(486,60,l)
);
},
{
closed = 1;
nodes = (
(218,28,l),
(318,28,l),
(318,700,l),
(218,700,l)
);
},
{
closed = 1;
nodes = (
(108,574,l),
(251,649,l),
(218,700,l),
(77,626,l)
);
}
);
width = 536;
}
);
unicode = 49;
},
{
glyphname = two;
lastChange = "2025-05-29 23:37:49 +0000";
layers = (
{
hints = (
{
name = _corner.round;
origin = (1,2);
type = Corner;
},
{
name = _corner.round;
origin = (2,0);
type = Corner;
},
{
name = _corner.round;
origin = (2,1);
type = Corner;
},
{
name = _corner.round;
origin = (1,1);
type = Corner;
}
);
layerId = m01;
shapes = (
{
closed = 1;
nodes = (
(111,383,l),
(420,383,l),
(420,443,l),
(111,443,l)
);
},
{
closed = 1;
nodes = (
(386,383,l),
(486,383,l),
(486,700,l),
(386,700,l)
);
},
{
closed = 1;
nodes = (
(50,443,l),
(50,0,l),
(150,0,l),
(150,443,l)
);
},
{
closed = 1;
nodes = (
(50,640,l),
(391,640,l),
(391,700,l),
(50,700,l)
);
},
{
closed = 1;
nodes = (
(112,0,l),
(486,0,l),
(486,60,l),
(112,60,l)
);
}
);
width = 536;
}
);
unicode = 50;
},
{
glyphname = three;
lastChange = "2025-05-29 23:37:55 +0000";
layers = (
{
hints = (
{
name = _corner.round;
origin = (1,1);
type = Corner;
},
{
name = _corner.round;
origin = (1,2);
type = Corner;
},
{
name = _corner.round;
origin = (1,2);
type = Corner;
},
{
name = _corner.round;
origin = (2,2);
type = Corner;
},
{
name = _corner.round;
origin = (1,2);
type = Corner;
},
{
name = _corner.round;
options = 2;
origin = (2,2);
scale = (-1,1);
type = Corner;
},
{
name = _corner.round;
origin = (2,1);
type = Corner;
}
);
layerId = m01;
shapes = (
{
closed = 1;
nodes = (
(138,383,l),
(420,383,l),
(420,443,l),
(138,443,l)
);
},
{
closed = 1;
nodes = (
(386,0,l),
(486,0,l),
(486,413,l),
(386,413,l)
);
},
{
closed = 1;
nodes = (
(386,413,l),
(486,413,l),
(486,700,l),
(386,700,l)
);
},
{
closed = 1;
nodes = (
(50,640,l),
(391,640,l),
(391,700,l),
(50,700,l)
);
},
{
closed = 1;
nodes = (
(50,0,l),
(395,0,l),
(395,60,l),
(50,60,l)
);
}
);
width = 536;
}
);
unicode = 51;
},
{
glyphname = four;
lastChange = "2025-05-29 23:38:03 +0000";
layers = (
{
layerId = m01;
shapes = (
{
closed = 1;
nodes = (
(328,0,l),
(428,0,l),
(428,700,l),
(328,700,l)
);
},
{
closed = 1;
nodes = (
(50,153,l),
(486,153,l),
(486,213,l),
(50,213,l)
);
},
{
closed = 1;
nodes = (
(308,700,l),
(50,213,l),
(119,213,l),
(377,700,l)
);
}
);
width = 536;
}
);
unicode = 52;
},
{
glyphname = five;
lastChange = "2025-05-29 23:38:11 +0000";
layers = (
{
hints = (
{
name = _corner.round;
origin = (1,1);
type = Corner;
},
{
name = _corner.round;
origin = (1,2);
type = Corner;
},
{
name = _corner.round;
origin = (1,2);
type = Corner;
},
{
name = _corner.round;
origin = (2,0);
type = Corner;
},
{
name = _corner.round;
origin = (2,1);
type = Corner;
}
);
layerId = m01;
shapes = (
{
closed = 1;
nodes = (
(111,383,l),
(420,383,l),
(420,443,l),
(111,443,l)
);
},
{
closed = 1;
nodes = (
(386,0,l),
(486,0,l),
(486,443,l),
(386,443,l)
);
},
{
closed = 1;
nodes = (
(50,700,l),
(50,383,l),
(150,383,l),
(150,700,l)
);
},
{
closed = 1;
nodes = (
(138,640,l),
(486,640,l),
(486,700,l),
(138,700,l)
);
},
{
closed = 1;
nodes = (
(50,0,l),
(395,0,l),
(395,60,l),
(50,60,l)
);
}
);
width = 600;
}
);
unicode = 53;
},
{
glyphname = six;
lastChange = "2025-05-29 23:38:15 +0000";
layers = (
{
hints = (
{
name = _corner.round;
origin = (1,1);
type = Corner;
},
{
name = _corner.round;
origin = (1,2);
type = Corner;
},
{
name = _corner.round;
origin = (2,0);
type = Corner;
},
{
name = _corner.round;
origin = (2,1);
type = Corner;
},
{
name = _corner.round;
origin = (2,0);
type = Corner;
}
);
layerId = m01;
shapes = (
{
closed = 1;
nodes = (
(111,383,l),
(420,383,l),
(420,443,l),
(111,443,l)
);
},
{
closed = 1;
nodes = (
(386,0,l),
(486,0,l),
(486,443,l),
(386,443,l)
);
},
{
closed = 1;
nodes = (
(50,700,l),
(50,0,l),
(150,0,l),
(150,700,l)
);
},
{
closed = 1;
nodes = (
(138,640,l),
(486,640,l),
(486,700,l),
(138,700,l)
);
},
{
closed = 1;
nodes = (
(142,0,l),
(395,0,l),
(395,60,l),
(142,60,l)
);
}
);
width = 536;
}
);
unicode = 54;
},
{
glyphname = seven;
lastChange = "2025-05-29 23:38:23 +0000";
layers = (
{
layerId = m01;
shapes = (
{
closed = 1;
nodes = (
(50,640,l),
(466,640,l),
(486,700,l),
(50,700,l)
);
},
{
closed = 1;
nodes = (
(134,0,l),
(240,0,l),
(486,700,l),
(380,700,l)
);
}
);
width = 536;
}
);
unicode = 55;
},
{
glyphname = eight;
lastChange = "2025-05-29 23:38:32 +0000";
layers = (
{
hints = (
{
name = _corner.round;
origin = (1,2);
type = Corner;
},
{
name = _corner.round;
origin = (1,2);
type = Corner;
},
{
name = _corner.round;
origin = (3,0);
type = Corner;
},
{
name = _corner.round;
origin = (3,0);
type = Corner;
},
{
name = _corner.round;
origin = (1,2);
type = Corner;
},
{
name = _corner.round;
origin = (3,0);
type = Corner;
},
{
name = _corner.round;
origin = (4,0);
type = Corner;
},
{
name = _corner.round;
origin = (2,1);
type = Corner;
},
{
name = _corner.round;
origin = (4,1);
type = Corner;
},
{
name = _corner.round;
origin = (2,2);
type = Corner;
},
{
name = _corner.round;
origin = (3,1);
type = Corner;
},
{
name = _corner.round;
origin = (1,1);
type = Corner;
}
);
layerId = m01;
shapes = (
{
closed = 1;
nodes = (
(111,383,l),
(420,383,l),
(420,443,l),
(111,443,l)
);
},
{
closed = 1;
nodes = (
(386,0,l),
(486,0,l),
(486,413,l),
(386,413,l)
);
},
{
closed = 1;
nodes = (
(386,413,l),
(486,413,l),
(486,700,l),
(386,700,l)
);
},
{
closed = 1;
nodes = (
(50,413,l),
(50,0,l),
(150,0,l),
(150,413,l)
);
},
{
closed = 1;
nodes = (
(50,700,l),
(50,413,l),
(150,413,l),
(150,700,l)
);
},
{
closed = 1;
nodes = (
(138,640,l),
(391,640,l),
(391,700,l),
(138,700,l)
);
},
{
closed = 1;
nodes = (
(142,0,l),
(395,0,l),
(395,60,l),
(142,60,l)
);
}
);
width = 536;
}
);
unicode = 56;
},
{
glyphname = nine;
lastChange = "2025-05-29 23:38:40 +0000";
layers = (
{
hints = (
{
name = _corner.round;
origin = (1,1);
type = Corner;
},
{
name = _corner.round;
origin = (1,2);
type = Corner;
},
{
name = _corner.round;
origin = (1,2);
type = Corner;
},
{
name = _corner.round;
origin = (2,0);
type = Corner;
},
{
name = _corner.round;
origin = (2,1);
type = Corner;
}
);
layerId = m01;
shapes = (
{
closed = 1;
nodes = (
(111,383,l),
(420,383,l),
(420,443,l),
(111,443,l)
);
},
{
closed = 1;
nodes = (
(386,0,l),
(486,0,l),
(486,700,l),
(386,700,l)
);
},
{
closed = 1;
nodes = (
(50,700,l),
(50,383,l),
(150,383,l),
(150,700,l)
);
},
{
closed = 1;
nodes = (
(138,640,l),
(391,640,l),
(391,700,l),
(138,700,l)
);
},
{
closed = 1;
nodes = (
(50,0,l),
(395,0,l),
(395,60,l),
(50,60,l)
);
}
);
width = 536;
}
);
unicode = 57;
},
{
glyphname = period;
lastChange = "2025-05-29 18:43:14 +0000";
layers = (
{
layerId = m01;
shapes = (
{
closed = 1;
nodes = (
(301,0,o),
(328,26,o),
(328,60,cs),
(328,93,o),
(301,120,o),
(268,120,cs),
(234,120,o),
(208,93,o),
(208,60,cs),
(208,26,o),
(234,0,o),
(268,0,cs)
);
}
);
width = 536;
}
);
unicode = 46;
},
{
glyphname = comma;
lastChange = "2025-05-29 18:43:22 +0000";
layers = (
{
hints = (
{
name = _corner.round;
origin = (0,3);
type = Corner;
},
{
name = _corner.round;
origin = (0,1);
type = Corner;
}
);
layerId = m01;
shapes = (
{
closed = 1;
nodes = (
(218,-154,l),
(318,-154,l),
(318,116,l),
(218,116,l)
);
}
);
width = 536;
}
);
unicode = 44;
},
{
glyphname = semicolon;
lastChange = "2025-05-29 23:39:13 +0000";
layers = (
{
hints = (
{
name = _corner.round;
origin = (1,3);
type = Corner;
},
{
name = _corner.round;
origin = (1,1);
type = Corner;
}
);
layerId = m01;
shapes = (
{
closed = 1;
nodes = (
(301,342,o),
(328,368,o),
(328,402,cs),
(328,435,o),
(301,462,o),
(268,462,cs),
(234,462,o),
(208,435,o),
(208,402,cs),
(208,368,o),
(234,342,o),
(268,342,cs)
);
},
{
closed = 1;
nodes = (
(218,-154,l),
(318,-153,l),
(318,117,l),
(218,116,l)
);
}
);
width = 536;
}
);
unicode = 59;
},
{
glyphname = exclam;
lastChange = "2025-05-29 17:48:58 +0000";
layers = (
{
hints = (
{
name = _corner.round;
origin = (1,3);
type = Corner;
},
{
name = _corner.round;
origin = (1,1);
type = Corner;
}
);
layerId = m01;
shapes = (
{
closed = 1;
nodes = (
(340,0,o),
(367,26,o),
(367,60,cs),
(367,93,o),
(340,120,o),
(307,120,cs),
(273,120,o),
(247,93,o),
(247,60,cs),
(247,26,o),
(273,0,o),
(307,0,cs)
);
},
{
closed = 1;
nodes = (
(257,200,l),
(357,200,l),
(357,700,l),
(257,700,l)
);
}
);
width = 600;
}
);
unicode = 33;
},
{
glyphname = asterisk;
lastChange = "2025-05-29 19:46:23 +0000";
layers = (
{
hints = (
{
name = _corner.round;
origin = (0,1);
type = Corner;
},
{
name = _corner.round;
origin = (0,3);
type = Corner;
},
{
name = _corner.round;
origin = (2,0);
type = Corner;
},
{
name = _corner.round;
origin = (2,2);
type = Corner;
},
{
name = _corner.round;
origin = (1,1);
type = Corner;
},
{
name = _corner.round;
origin = (1,3);
type = Corner;
}
);
layerId = m01;
shapes = (
{
closed = 1;
nodes = (
(238,371,l),
(298,371,l),
(298,716,l),
(238,716,l)
);
},
{
closed = 1;
nodes = (
(134,656,l),
(104,604,l),
(402,431,l),
(432,483,l)
);
},
{
closed = 1;
nodes = (
(134,431,l),
(432,604,l),
(402,656,l),
(104,483,l)
);
}
);
width = 536;
}
);
unicode = 42;
},
{
glyphname = slash;
lastChange = "2025-05-29 23:46:11 +0000";
layers = (
{
hints = (
{
name = _corner.round;
origin = (0,3);
type = Corner;
},
{
name = _corner.round;
origin = (0,1);
type = Corner;
}
);
layerId = m01;
shapes = (
{
closed = 1;
nodes = (
(58,-110,l),
(164,-110,l),
(484,800,l),
(378,800,l)
);
}
);
width = 536;
}
);
unicode = 47;
},
{
glyphname = hyphen;
lastChange = "2025-05-29 18:43:35 +0000";
layers = (
{
hints = (
{
name = _corner.round;
origin = (0,3);
type = Corner;
},
{
name = _corner.round;
origin = (0,1);
type = Corner;
}
);
layerId = m01;
shapes = (
{
closed = 1;
nodes = (
(101,257,l),
(434,257,l),
(434,317,l),
(101,317,l)
);
}
);
width = 536;
}
);
unicode = 45;
},
{
glyphname = parenleft;
lastChange = "2025-05-29 23:46:39 +0000";
layers = (
{
hints = (
{
name = _corner.round;
origin = (0,11);
type = Corner;
},
{
name = _corner.round;
origin = (0,1);
type = Corner;
}
);
layerId = m01;
shapes = (
{
closed = 1;
nodes = (
(59,345,l),
(169,-110,l),
(427,-110,l),
(427,-50,l),
(236,-50,l),
(268,-95,l),
(160,345,l),
(268,785,l),
(236,740,l),
(427,740,l),
(427,800,l),
(169,800,l)
);
}
);
width = 536;
}
);
unicode = 40;
},
{
glyphname = braceleft;
lastChange = "2025-05-29 23:46:00 +0000";
layers = (
{
hints = (
{
name = _corner.round;
origin = (0,4);
type = Corner;
},
{
name = _corner.round;
origin = (0,4);
type = Corner;
},
{
name = _corner.round;
origin = (0,4);
type = Corner;
},
{
name = _corner.round;
origin = (0,4);
type = Corner;
},
{
name = _corner.round;
origin = (0,6);
type = Corner;
},
{
name = _corner.round;
origin = (0,4);
type = Corner;
},
{
name = _corner.round;
origin = (2,1);
type = Corner;
},
{
name = _corner.round;
origin = (2,6);
type = Corner;
}
);
layerId = m01;
shapes = (
{
closed = 1;
nodes = (
(427,-110,l),
(427,-50,l),
(224,-50,l),
(269,-95,l),
(269,345,l),
(169,345,l),
(169,-110,l)
);
},
{
closed = 1;
nodes = (
(109,295,l),
(197,295,l),
(197,395,l),
(109,395,l)
);
},
{
closed = 1;
nodes = (
(169,345,l),
(269,345,l),
(269,785,l),
(224,740,l),
(427,740,l),
(427,800,l),
(169,800,l)
);
}
);
width = 536;
}
);
unicode = 123;
},
{
glyphname = bracketleft;
lastChange = "2025-05-29 23:40:47 +0000";
layers = (
{
layerId = m01;
shapes = (
{
closed = 1;
nodes = (
(139,-110,l),
(397,-110,l),
(397,-50,l),
(214,-50,l),
(239,-80,l),
(239,770,l),
(214,740,l),
(397,740,l),
(397,800,l),
(139,800,l)
);
}
);
width = 536;
}
);
unicode = 91;
},
{
glyphname = bar;
lastChange = "2025-05-29 19:35:18 +0000";
layers = (
{
hints = (
{
name = _corner.round;
origin = (0,3);
type = Corner;
},
{
name = _corner.round;
origin = (0,1);
type = Corner;
}
);
layerId = m01;
shapes = (
{
closed = 1;
nodes = (
(218,-110,l),
(318,-110,l),
(318,800,l),
(218,800,l)
);
}
);
width = 536;
}
);
unicode = 124;
},
{
glyphname = dollar;
lastChange = "2025-05-29 23:39:47 +0000";
layers = (
{
hints = (
{
name = _corner.round;
origin = (1,3);
type = Corner;
},
{
name = _corner.round;
origin = (1,1);
type = Corner;
}
);
layerId = m01;
shapes = (
{
ref = S;
},
{
closed = 1;
nodes = (
(238,-100,l),
(298,-100,l),
(298,800,l),
(238,800,l)
);
}
);
width = 536;
}
);
unicode = 36;
},
{
glyphname = less;
lastChange = "2025-05-29 19:42:07 +0000";
layers = (
{
hints = (
{
name = _corner.round;
origin = (0,2);
type = Corner;
},
{
name = _corner.round;
origin = (0,5);
type = Corner;
}
);
layerId = m01;
shapes = (
{
closed = 1;
nodes = (
(50,233,l),
(486,0,l),
(486,100,l),
(104,304,l),
(104,262,l),
(486,466,l),
(486,566,l),
(50,333,l)
);
}
);
width = 536;
}
);
unicode = 60;
},
{
glyphname = asciicircum;
lastChange = "2025-05-29 20:22:28 +0000";
layers = (
{
hints = (
{
name = _corner.round;
origin = (0,0);
scale = (0.8,1);
type = Corner;
},
{
name = _corner.round;
origin = (1,3);
scale = (1,0.8);
type = Corner;
}
);
layerId = m01;
shapes = (
{
closed = 1;
nodes = (
(155,428,l),
(307,716,l),
(229,716,l),
(77,428,l)
);
},
{
closed = 1;
nodes = (
(459,428,l),
(307,716,l),
(229,716,l),
(381,428,l)
);
}
);
width = 536;
}
);
unicode = 94;
},
{
export = 0;
glyphname = _corner.round;
lastChange = "2025-04-26 22:03:08 +0000";
layers = (
{
layerId = m01;
shapes = (
{
closed = 0;
nodes = (
(0,60,l),
(0,26,o),
(26,0,o),
(60,0,c)
);
}
